# xmcd
#
# Track frame offsets: 
#        150
#        22049
#        43372
#        71483
#        89754
#        116870
#        143244
#        160804
#
# Disc length: 2383 seconds
#
# Revision: 0
# Processed by: cddbd v1.5.2PL0 Copyright (c) Steve Scherf et al.
# Submitted via: ExactAudioCopy v1.3
#
DISCID=77094d08
DTITLE=Heaven and Earth - Heaven and Earth
DYEAR=1978
DGENRE=Soul
TTITLE0=Let's Work It Out
TTITLE1=Distant Melody
TTITLE2=Guess Who's Back In Town
TTITLE3=How Do You Think You're Gonna Find Love
TTITLE4=Run And Tell That
TTITLE5=Dance-A-Thon
TTITLE6=No Limit
TTITLE7=You Are A Part Of Me
EXTD=
EXTT0=
EXTT1=
EXTT2=
EXTT3=
EXTT4=
EXTT5=
EXTT6=
EXTT7=
PLAYORDER=
